<?xml version="1.0" encoding="UTF-8"?>
<svg id="Calque_2" data-name="Calque 2" xmlns="http://www.w3.org/2000/svg" xmlns:xlink="http://www.w3.org/1999/xlink" viewBox="0 0 478.3 478.3">
  <defs>
    <style>
      .cls-1, .cls-2, .cls-3, .cls-4 {
        stroke-width: 0px;
      }

      .cls-2 {
        fill: #232222;
      }

      .cls-3 {
        fill: #fff;
      }

      .cls-4 {
        fill: url(#Dégradé_sans_nom_64);
      }
    </style>
    <radialGradient id="Dégradé_sans_nom_64" data-name="Dégradé sans nom 64" cx="239.15" cy="239.15" fx="239.15" fy="239.15" r="239.15" gradientUnits="userSpaceOnUse">
      <stop offset="0" stop-color="#6e67ad"/>
      <stop offset=".27" stop-color="#6d64a9"/>
      <stop offset=".5" stop-color="#6d5b9e"/>
      <stop offset=".71" stop-color="#6c4b8d"/>
      <stop offset=".92" stop-color="#6a3674"/>
      <stop offset="1" stop-color="#6a2d69"/>
    </radialGradient>
  </defs>
  <g id="Calque_9" data-name="Calque 9">
    <g id="Calque_6" data-name="Calque 6">
      <circle class="cls-4" cx="239.15" cy="239.15" r="239.15"/>
      <g>
        <path class="cls-1" d="M243.87,257.57s-1.66,30.69,11.61,33.18c13.27,2.49,35.66,14.1,33.18,32.35-2.49,18.25,10.78,41.47-9.12,49.76-19.91,8.29-30.69-41.47-43.13-38.98-12.44,2.49-10.01,18.18-9.75,22.81.31,5.44.93,6.22.93,6.22,0,0-14.83-10.99-6.95-42.51,7.88-31.52,22.81-46.86,23.22-62.83Z"/>
        <path class="cls-1" d="M230.96,353.26s.67-6.32,2.95-4.25c2.28,2.07,4.77,16.38-1.24,17.62s-23.64,2.7-24.67-30.69c-1.04-33.38,21.25-34.52,19.39-34.11-1.87.41,18.08-34.14,16.42-41.6,0,0-13.21,28.02-21.29,31.96-8.09,3.94-38.57,18.04-36.08,41.47s12.03,10.16,15.14,21.98c3.11,11.82-22.18,36.55,7.88,36.55s38.98-20.79,36.49-31.15c-2.49-10.37-14.38-26.37-15.34-7.57-.26,5.08.36-.21.36-.21Z"/>
        <polygon class="cls-1" points="249.48 259.23 264.41 195.36 251.56 139.79 243.05 172.35 250.1 159.08 255.5 195.99 249.48 259.23"/>
        <path class="cls-1" d="M260.82,277.53s43-20.13,43.59-22.2c0,0-7.54,9.98-2.92,23.4,0,0-31.8,2.64-40.67-1.2Z"/>
        <path class="cls-1" d="M312.86,278.35s7.33-50.95,37.96-79.4c0,0-11.57,20.01-5,25.95s44.08-56.84,26.26-109.36c0,0,27.82,27.4-25.63,152.96,0,0,2.17-20.26-5-16.98-4.84,2.21-15.47,18.21-16.07,22.58,0,0,4.83-29.31,22.63-29.51,0,0-6.25-6.88-12.19-1.25-5.94,5.63-22.96,35.01-22.96,35.01Z"/>
        <polygon class="cls-1" points="230.02 260.32 215.09 196.46 227.95 140.89 236.45 173.44 229.4 160.17 224.01 197.08 230.02 260.32"/>
        <path class="cls-1" d="M217.71,279.52s-41.07-19.68-39.84-20.29c0,0,6.89,9.12,2.67,21.39,0,0,29.07,2.41,37.17-1.09Z"/>
        <path class="cls-1" d="M169.94,278.35s-6.55-45.51-33.91-70.92c0,0,10.33,17.87,4.47,23.18s-53.33-54.73-37.42-101.64c0,0-24.85,24.48,22.9,136.63,0,0-.28-14.89,4.47-15.17,4.75-.28,22.39,24.01,22.92,27.92,0,0-9.52-28.76-14.83-30.16,0,0,5.58-6.14,10.89-1.12,5.31,5.03,20.51,31.27,20.51,31.27Z"/>
        <polygon class="cls-2" points="243.87 160.94 250.92 147.67 250.81 134.35 243.87 160.94"/>
        <polygon class="cls-3" points="247.4 197.35 254.45 184.08 254.34 170.76 247.4 197.35"/>
        <polygon class="cls-2" points="235.74 162.24 228.69 148.97 228.8 135.65 235.74 162.24"/>
        <polygon class="cls-3" points="232.22 199.25 225.17 185.98 225.27 172.66 232.22 199.25"/>
        <path class="cls-1" d="M265.52,267.4s102.47-77.54,86.2-167.28c-5.61-30.92-21.17-45.65-21.17-45.65,0,0,59.68,90.62-65.02,212.93Z"/>
        <path class="cls-1" d="M260.48,259.9s83.19-61.8,70.11-133.92c-4.51-24.85-17.02-36.69-17.02-36.69,0,0,47.13,72.31-53.09,170.62Z"/>
        <path class="cls-1" d="M254.53,256.37s67.89-51.83,57.19-110.82c-3.69-20.32-13.92-30.01-13.92-30.01,0,0,38.72,60.43-43.27,140.84Z"/>
        <path class="cls-1" d="M221.23,271.35s-102.47-77.54-86.2-167.28c5.61-30.92,21.17-45.65,21.17-45.65,0,0-59.68,90.62,65.02,212.93Z"/>
        <path class="cls-1" d="M226.26,263.85s-83.19-61.8-70.11-133.92c4.51-24.85,17.02-36.69,17.02-36.69,0,0-47.13,72.31,53.09,170.62Z"/>
        <path class="cls-1" d="M232.22,260.32s-67.89-51.83-57.19-110.82c3.69-20.32,13.92-30.01,13.92-30.01,0,0-38.72,60.43,43.27,140.84Z"/>
      </g>
    </g>
  </g>
</svg>