<?xml version="1.0" encoding="UTF-8"?>
<svg id="Calque_2" data-name="Calque 2" xmlns="http://www.w3.org/2000/svg" xmlns:xlink="http://www.w3.org/1999/xlink" viewBox="0 0 595.28 595.28">
  <defs>
    <style>
      .cls-1 {
        fill: url(#Dégradé_sans_nom_490-2);
      }

      .cls-2 {
        fill: #fff;
      }

      .cls-3 {
        fill: #e1de0a;
      }

      .cls-4 {
        fill: url(#Dégradé_sans_nom_490-6);
      }

      .cls-5 {
        fill: url(#Dégradé_sans_nom_490-3);
      }

      .cls-6 {
        fill: url(#Dégradé_sans_nom_490-4);
      }

      .cls-7 {
        fill: url(#Dégradé_sans_nom_490-7);
      }

      .cls-8 {
        fill: #b61210;
      }

      .cls-9 {
        fill: url(#Dégradé_sans_nom_490);
      }

      .cls-10 {
        fill: url(#Dégradé_sans_nom_660);
      }

      .cls-11 {
        fill: url(#Dégradé_sans_nom_490-5);
      }

      .cls-12 {
        fill: #1d1d1b;
      }
    </style>
    <linearGradient id="Dégradé_sans_nom_660" data-name="Dégradé sans nom 660" x1="297.64" y1="595.28" x2="297.64" y2="0" gradientUnits="userSpaceOnUse">
      <stop offset="0" stop-color="#791331"/>
      <stop offset="1" stop-color="#b32c30"/>
    </linearGradient>
    <linearGradient id="Dégradé_sans_nom_490" data-name="Dégradé sans nom 490" x1="276.33" y1="500.68" x2="280.89" y2="500.68" gradientUnits="userSpaceOnUse">
      <stop offset="0" stop-color="#b71255"/>
      <stop offset="1" stop-color="#b32c30"/>
    </linearGradient>
    <linearGradient id="Dégradé_sans_nom_490-2" data-name="Dégradé sans nom 490" x1="270.91" y1="492.98" x2="278.7" y2="492.98" xlink:href="#Dégradé_sans_nom_490"/>
    <linearGradient id="Dégradé_sans_nom_490-3" data-name="Dégradé sans nom 490" x1="303.29" y1="492.68" x2="319.83" y2="492.68" xlink:href="#Dégradé_sans_nom_490"/>
    <linearGradient id="Dégradé_sans_nom_490-4" data-name="Dégradé sans nom 490" x1="281.9" y1="492.86" x2="294.07" y2="492.86" xlink:href="#Dégradé_sans_nom_490"/>
    <linearGradient id="Dégradé_sans_nom_490-5" data-name="Dégradé sans nom 490" x1="293.65" y1="472.66" x2="302.28" y2="472.66" xlink:href="#Dégradé_sans_nom_490"/>
    <linearGradient id="Dégradé_sans_nom_490-6" data-name="Dégradé sans nom 490" x1="287.2" y1="485.69" x2="291.33" y2="485.69" xlink:href="#Dégradé_sans_nom_490"/>
    <linearGradient id="Dégradé_sans_nom_490-7" data-name="Dégradé sans nom 490" x1="284.95" y1="489.58" x2="286.87" y2="489.58" xlink:href="#Dégradé_sans_nom_490"/>
  </defs>
  <g id="Calque_3" data-name="Calque 3">
    <rect class="cls-10" width="595.28" height="595.28"/>
  </g>
  <g id="Calque_2-2" data-name="Calque 2">
    <path class="cls-12" d="m303.29,369.52s-2.05,37.99,14.38,41.07c16.43,3.08,44.15,17.46,41.07,40.05-3.08,22.59,13.35,51.34-11.3,61.61-24.64,10.27-37.99-51.34-53.4-48.26-15.4,3.08-12.39,22.51-12.07,28.24.39,6.74,1.16,7.7,1.16,7.7,0,0-18.35-13.61-8.6-52.63,9.75-39.02,28.24-58.02,28.75-77.78Z"/>
    <path class="cls-12" d="m287.31,487.99s.83-7.83,3.66-5.26,5.9,20.28-1.54,21.82-29.26,3.34-30.55-37.99,26.31-42.74,24-42.23,22.38-42.26,20.33-51.51c0,0-16.35,34.69-26.36,39.57-10.01,4.88-47.75,22.33-44.67,51.34,3.08,29.01,14.89,12.58,18.74,27.21,3.85,14.63-27.46,45.25,9.76,45.25s48.26-25.74,45.18-38.57c-3.08-12.84-17.81-32.65-19-9.37-.32,6.29.45-.26.45-.26Z"/>
    <polygon class="cls-12" points="311.25 355.65 329.74 276.59 313.82 207.79 303.29 248.09 312.02 231.66 318.7 277.36 311.25 355.65"/>
    <path class="cls-12" d="m308.83,358.99s26.04-20.79,25.66-29.26c-.39-8.47,16.64-44.28,26.8-52.37s17.1-24.64,12.86-43.9c-4.24-19.25,7.7-28.88,7.7-28.88,0,0,5.01-27.72-10.01-43.51s-35.81-21.95-35.81-21.95c0,0,22.72.39,48.9,35.43,26.18,35.04-10.4,36.58-2.7,50.06,7.7,13.48-8.47-.77.39,33.89,0,0-15.68,37.35-30.94,40.43,0,0-10.64,19.64-10.26,32.73.39,13.09-32.59,27.34-32.59,27.34Z"/>
    <path class="cls-12" d="m311,372.82s12.32-11,23.1-24.35c10.78-13.35,25.16-31.32,50.32-37.48s10.27-58.53,19.51-54.42c0,0,25.16-26.7,23.1-39.53-2.05-12.84-31.32-30.29-26.7-35.43s-1.87-35.43-5.81-33.89-8.05-15.4-17.29-16.94c-9.24-1.54-10.83-18.48-15.94-19s-14.87-4.62-14.87-4.62c0,0,22.61,1.66,32.35,17.97,9.74,16.31,14.38,4.88,21.05,13.99,6.67,9.11-2.57,28.11,5.13,35.3,7.7,7.19,31.32,27.21,27.21,42.1s-14.07,40.19-22.38,40.56c-8.31.37-1.06,56.99-15.27,54.42-14.21-2.57-35.26,18.48-37.31,23.62s-41.07,39.98-46.21,37.7Z"/>
    <path class="cls-12" d="m311,381.84s20.02-8.21,36.97-20.02c16.94-11.81,6.08-21.56,61.82-40.05,0,0,28.19-24.43,22.85-57.5-5.34-33.07,24.68-19.51,28.28-49.29,3.59-29.78-28.28-30.81-28.28-30.81,0,0-21.01-25.16-14.85-37.99,6.16-12.84-47.23-67.26-73.42-64.18,0,0,87.28,6.16,81.63,75.99,0,0,2.05,19,14.38,22.59s10.02,18.29,8.99,29.59,3.84,38.19-8.48,42.29c-12.32,4.11,4.82,45.39-8.25,51.86-13.07,6.47-12.27,31.93-52.84,34.91,0,0-23.1,30.73-30.29,33.59s-32.35,9.53-38.51,9.02Z"/>
    <path class="cls-12" d="m324.28,393.46s69.1-32.35,70.05-35.68c0,0-12.11,16.04-4.69,37.61,0,0-51.11,4.24-65.36-1.93Z"/>
    <path class="cls-3" d="m344.1,390.75s38.49-17.98,38.49-19.61c0,0-6.65,8.82-2.58,20.66,0,0-28.08,2.33-35.91-1.06Z"/>
    <path class="cls-12" d="m409.79,387.1s9.03-62.77,46.76-97.81c0,0-14.25,24.64-6.16,31.96,8.09,7.32,54.3-70.02,32.35-134.71,0,0,34.27,33.76-31.58,188.43,0,0,2.68-24.95-6.16-20.92-5.97,2.72-19.06,22.43-19.79,27.82,0,0,5.95-36.1,27.87-36.35,0,0-7.7-8.47-15.02-1.54-7.32,6.93-28.28,43.13-28.28,43.13Z"/>
    <polygon class="cls-12" points="284.13 355.65 265.64 276.59 281.56 207.79 292.08 248.09 283.36 231.66 276.68 277.36 284.13 355.65"/>
    <path class="cls-12" d="m286.55,363.36s-26.04-20.79-25.66-29.26c.39-8.47-16.64-44.28-26.8-52.37-10.16-8.09-17.1-24.64-12.86-43.9s-7.7-28.88-7.7-28.88c0,0-5.01-27.72,10.01-43.51,15.02-15.79,35.81-21.95,35.81-21.95,0,0-22.72.39-48.9,35.43-26.18,35.04,10.4,36.58,2.7,50.06s8.47-.77-.39,33.89c0,0,15.68,37.35,30.94,40.43,0,0,10.64,19.64,10.26,32.73-.39,13.09,32.59,27.34,32.59,27.34Z"/>
    <path class="cls-12" d="m284.38,377.19s-12.32-11-23.1-24.35c-10.78-13.35-25.16-31.32-50.32-37.48-25.16-6.16-10.27-58.53-19.51-54.42,0,0-25.16-26.7-23.1-39.53s31.32-30.29,26.7-35.43c-4.62-5.13,1.87-35.43,5.81-33.89s8.05-15.4,17.29-16.94,10.83-18.48,15.94-19c5.11-.51,14.87-4.62,14.87-4.62,0,0-20.78,3.71-32.35,17.97s-14.38,4.88-21.05,13.99,2.57,28.11-5.13,35.3-31.32,27.21-27.21,42.1c4.11,14.89,14.07,40.19,22.38,40.56,8.31.37,1.06,56.99,15.27,54.42,14.21-2.57,35.26,18.48,37.31,23.62s41.07,39.98,46.21,37.7Z"/>
    <path class="cls-12" d="m284.38,386.21s-20.02-8.21-36.97-20.02c-16.94-11.81-6.08-21.56-61.82-40.05,0,0-28.19-24.43-22.85-57.5s-24.68-19.51-28.28-49.29c-3.59-29.78,28.28-30.81,28.28-30.81,0,0,21.01-25.16,14.85-37.99s47.23-67.26,73.42-64.18c0,0-87.28,6.16-81.63,75.99,0,0-10.22,20.59-14.38,22.59-11.56,5.57-29.26,12.84-28.24,24.13s15.4,43.64,27.72,47.75c12.32,4.11-4.82,45.39,8.25,51.86s12.27,31.93,52.84,34.91c0,0,23.1,30.73,30.29,33.59s32.35,9.53,38.51,9.02Z"/>
    <path class="cls-12" d="m270.91,395.7s-72.21-34.61-70.05-35.68c0,0,12.11,16.04,4.69,37.61,0,0,51.11,4.24,65.36-1.93Z"/>
    <path class="cls-12" d="m185.59,391.47s-9.03-62.77-46.76-97.81c0,0,14.25,24.64,6.16,31.96s-73.55-75.47-51.6-140.16c0,0-34.27,33.76,31.58,188.43,0,0-.39-20.54,6.16-20.92,6.55-.39,30.88,33.12,31.61,38.51,0,0-13.13-39.66-20.45-41.59,0,0,7.7-8.47,15.02-1.54s28.28,43.13,28.28,43.13Z"/>
    <path class="cls-3" d="m255.1,392.42s-38.49-17.98-38.49-19.61c0,0,6.65,8.82,2.58,20.66,0,0,28.08,2.33,35.91-1.06Z"/>
    <polygon class="cls-2" points="303.29 248.09 312.02 231.66 311.89 215.17 303.29 248.09"/>
    <polygon class="cls-2" points="292.08 248.09 283.36 231.66 283.49 215.17 292.08 248.09"/>
    <path class="cls-2" d="m259.35,143.49s-9.93,3.34-9.98,3.95.33-1.58.33-1.58c0,0,7.42-2.61,9.65-2.37Z"/>
    <path class="cls-2" d="m336.11,139.13s9.81,3.53,10.11,4.06c.33.58-.46-1.69-.46-1.69,0,0-6.69-2.55-9.65-2.37Z"/>
    <path class="cls-2" d="m248.96,111.53s-6.71,2.53-7.01,2.63,0-.76,0-.76c0,0,6.43-1.89,7.01-1.87Z"/>
    <path class="cls-2" d="m353.62,108.42s-5.65-1.37-7.2-1.27c0,0,6.81,2.61,7.12,2.61"/>
  </g>
  <g id="Calque_4" data-name="Calque 4">
    <polygon class="cls-8" points="280.42 433.37 326.98 433.37 274.64 506.44 317.8 441.87 290.7 442.17 330.04 494.89 278.7 494.89 270.91 494.89 270.91 491.15 276.47 491.07 319.16 490.47 280.42 433.37"/>
    <polygon class="cls-9" points="280.89 497.72 280.61 497.41 276.33 503.92 276.42 503.96 280.89 497.72"/>
  </g>
  <g id="Calque_6" data-name="Calque 6">
    <polygon class="cls-1" points="278.7 494.89 276.47 491.07 270.91 491.15 270.91 494.89 278.7 494.89"/>
  </g>
  <g id="Calque_5" data-name="Calque 5">
    <polygon class="cls-5" points="319.83 494.89 317.1 490.5 303.29 490.48 305.07 494.89 319.83 494.89"/>
    <polygon class="cls-6" points="293.76 490.83 294.07 494.89 282.18 494.89 281.9 490.99 293.76 490.83"/>
    <polygon class="cls-11" points="301.17 466.76 302.28 467.85 294.61 478.57 293.65 478 301.17 466.76"/>
    <polygon class="cls-4" points="291.33 483.14 290.66 482.48 287.4 487.36 287.2 488.91 291.33 483.14"/>
    <polygon class="cls-7" points="286.81 489.53 286.87 488.14 284.95 491.02 285.74 491.02 286.81 489.53"/>
  </g>
</svg>