<?xml version="1.0" standalone="no"?>
<!DOCTYPE svg PUBLIC "-//W3C//DTD SVG 20010904//EN"
 "http://www.w3.org/TR/2001/REC-SVG-20010904/DTD/svg10.dtd">
<svg version="1.0" xmlns="http://www.w3.org/2000/svg"
 width="700.000000pt" height="700.000000pt" viewBox="0 0 700.000000 700.000000"
 preserveAspectRatio="xMidYMid meet">
<metadata>
Created by potrace 1.14, written by Peter Selinger 2001-2017
</metadata>
<g transform="translate(0.000000,700.000000) scale(0.100000,-0.100000)"
fill="#000000" stroke="none">
<path d="M0 3500 l0 -3500 3500 0 3500 0 0 3500 0 3500 -3500 0 -3500 0 0
-3500z m4159 2224 c2 -2 2 -6 -1 -10 -3 -3 -21 2 -39 10 l-34 15 35 -6 c19 -3
37 -7 39 -9z m-1279 -54 c-8 -5 -19 -10 -25 -10 -5 0 -3 5 5 10 8 5 20 10 25
10 6 0 3 -5 -5 -10z m1151 -322 c22 -6 39 -15 39 -20 0 -11 -9 -9 -55 12 -46
21 -39 25 16 8z m-1045 -58 c-28 -11 -52 -18 -54 -15 -3 2 6 8 19 13 13 5 31
12 39 15 8 3 22 6 30 6 8 0 -7 -9 -34 -19z m399 -1016 c25 -93 45 -171 45
-174 0 -3 -23 36 -50 85 -49 89 -50 91 -50 179 0 49 2 87 5 84 3 -3 26 -82 50
-174z m239 -84 c-26 -50 -49 -89 -50 -87 -2 2 76 307 88 346 1 3 4 -34 5 -82
l4 -88 -47 -89z m841 -1627 c-12 -35 -15 -65 -11 -110 l7 -63 -174 0 c-277 0
-276 -5 -26 119 118 58 215 105 217 104 2 0 -4 -23 -13 -50z m-1510 -158 c39
-17 39 -18 15 -25 -14 -5 -106 -8 -205 -9 l-181 -1 4 70 c3 45 -1 84 -11 114
l-16 45 177 -88 c98 -49 195 -97 217 -106z"/>
</g>
</svg>
